<svg width="208" height="208" viewBox="0 0 208 208" fill="none" xmlns="http://www.w3.org/2000/svg">
<g clip-path="url(#clip0_160_157)">
<rect width="208" height="208" fill="white"/>
<path d="M104 0C161.438 0 208 46.5624 208 104C208 161.438 161.438 208 104 208C46.5624 208 0 161.438 0 104C0 46.5624 46.5624 0 104 0ZM104 14.5116C54.5769 14.5116 14.5116 54.5769 14.5116 104C14.5116 153.423 54.5769 193.488 104 193.488C153.423 193.488 193.488 153.423 193.488 104C193.488 54.5769 153.423 14.5116 104 14.5116ZM80.5333 124.793C81.9479 136.591 92.006 145.577 104 145.577C115.935 145.577 125.962 136.676 127.447 124.95C127.94 121.065 131.488 118.314 135.373 118.806C139.258 119.299 142.009 122.847 141.517 126.732C139.136 145.524 123.101 159.758 104 159.758C84.8058 159.758 68.7192 145.387 66.4523 126.481C65.9861 122.593 68.7603 119.062 72.6486 118.596C76.537 118.13 80.0671 120.904 80.5333 124.793ZM60.4651 65.3023C68.4797 65.3023 74.9767 71.7994 74.9767 79.8139C74.9767 87.8285 68.4797 94.3256 60.4651 94.3256C52.4506 94.3256 45.9535 87.8285 45.9535 79.8139C45.9535 71.7994 52.4506 65.3023 60.4651 65.3023ZM147.535 65.3023C155.549 65.3023 162.047 71.7994 162.047 79.8139C162.047 87.8285 155.549 94.3256 147.535 94.3256C139.52 94.3256 133.023 87.8285 133.023 79.8139C133.023 71.7994 139.52 65.3023 147.535 65.3023Z" fill="black"/>
</g>
<defs>
<clipPath id="clip0_160_157">
<rect width="208" height="208" fill="white"/>
</clipPath>
</defs>
</svg>
